<?xml version="1.0" encoding="utf-8" standalone="no"?>
<!DOCTYPE svg PUBLIC "-//W3C//DTD SVG 1.1//EN"
  "http://www.w3.org/Graphics/SVG/1.1/DTD/svg11.dtd">
<svg xmlns:xlink="http://www.w3.org/1999/xlink" width="576pt" height="576pt" viewBox="0 0 576 576" xmlns="http://www.w3.org/2000/svg" version="1.1">
 <metadata>
  <rdf:RDF xmlns:dc="http://purl.org/dc/elements/1.1/" xmlns:cc="http://creativecommons.org/ns#" xmlns:rdf="http://www.w3.org/1999/02/22-rdf-syntax-ns#">
   <cc:Work>
    <dc:type rdf:resource="http://purl.org/dc/dcmitype/StillImage"/>
    <dc:date>2025-11-19T12:38:24.460997</dc:date>
    <dc:format>image/svg+xml</dc:format>
    <dc:creator>
     <cc:Agent>
      <dc:title>Matplotlib v3.10.7, https://matplotlib.org/</dc:title>
     </cc:Agent>
    </dc:creator>
   </cc:Work>
  </rdf:RDF>
 </metadata>
 <defs>
  <style type="text/css">*{stroke-linejoin: round; stroke-linecap: butt}</style>
 </defs>
 <g id="figure_1">
  <g id="patch_1">
   <path d="M 0 576 
L 576 576 
L 576 0 
L 0 0 
z
" style="fill: #ffffff"/>
  </g>
  <g id="axes_1">
   <g id="patch_2">
    <path d="M 231.269189 472.683243 
L 351.139459 472.683243 
L 351.139459 113.072432 
L 231.269189 113.072432 
L 231.269189 472.683243 
z
" clip-path="url(#p597801d1cf)" style="fill: none; stroke: #000000; stroke-linejoin: miter"/>
   </g>
   <g id="line2d_1">
    <path d="M 231.269189 472.683243 
L 351.139459 472.683243 
" clip-path="url(#p597801d1cf)" style="fill: none; stroke: #000000; stroke-width: 1.5; stroke-linecap: square"/>
   </g>
   <g id="line2d_2">
    <path d="M 231.269189 113.072432 
L 351.139459 113.072432 
" clip-path="url(#p597801d1cf)" style="fill: none; stroke: #000000; stroke-width: 1.5; stroke-linecap: square"/>
   </g>
   <g id="line2d_3">
    <path d="M 231.269189 184.994595 
L 351.139459 184.994595 
" clip-path="url(#p597801d1cf)" style="fill: none; stroke-dasharray: 3.7,1.6; stroke-dashoffset: 0; stroke: #2ca02c"/>
   </g>
   <g id="line2d_4">
    <path d="M 231.269189 371.992216 
L 351.139459 371.992216 
" clip-path="url(#p597801d1cf)" style="fill: none; stroke-dasharray: 3.7,1.6; stroke-dashoffset: 0; stroke: #d62728"/>
   </g>
   <g id="line2d_5">
    <path d="M 231.269189 278.493405 
L 351.139459 278.493405 
" clip-path="url(#p597801d1cf)" style="fill: none; stroke-dasharray: 3.7,1.6; stroke-dashoffset: 0; stroke: #1f77b4"/>
   </g>
   <g id="patch_3">
    <path d="M 232.387223 504.648649 
Q 291.204324 504.648649 350.021425 504.648649 
" style="fill: none; stroke: #004f9f; stroke-linecap: round"/>
    <path d="M 236.387223 506.648649 
L 232.387223 504.648649 
L 236.387223 502.648649 
" style="fill: none; stroke: #004f9f; stroke-linecap: round"/>
    <path d="M 346.021425 502.648649 
L 350.021425 504.648649 
L 346.021425 506.648649 
" style="fill: none; stroke: #004f9f; stroke-linecap: round"/>
   </g>
   <g id="text_1">
    <g id="patch_4">
     <path d="M 262.394168 518.979063 
L 320.014481 518.979063 
Q 321.514481 518.979063 321.514481 517.479063 
L 321.514481 507.800938 
Q 321.514481 506.300938 320.014481 506.300938 
L 262.394168 506.300938 
Q 260.894168 506.300938 260.894168 507.800938 
L 260.894168 517.479063 
Q 260.894168 518.979063 262.394168 518.979063 
z
" style="fill: #ffffff; opacity: 0.9"/>
    </g>
    <!-- D = 3.00 m -->
    <g style="fill: #004f9f" transform="translate(262.394168 515.399375) scale(0.1 -0.1)">
     <defs>
      <path id="DejaVuSans-44" d="M 1259 4147 
L 1259 519 
L 2022 519 
Q 2988 519 3436 956 
Q 3884 1394 3884 2338 
Q 3884 3275 3436 3711 
Q 2988 4147 2022 4147 
L 1259 4147 
z
M 628 4666 
L 1925 4666 
Q 3281 4666 3915 4102 
Q 4550 3538 4550 2338 
Q 4550 1131 3912 565 
Q 3275 0 1925 0 
L 628 0 
L 628 4666 
z
" transform="scale(0.015625)"/>
      <path id="DejaVuSans-20" transform="scale(0.015625)"/>
      <path id="DejaVuSans-3d" d="M 678 2906 
L 4684 2906 
L 4684 2381 
L 678 2381 
L 678 2906 
z
M 678 1631 
L 4684 1631 
L 4684 1100 
L 678 1100 
L 678 1631 
z
" transform="scale(0.015625)"/>
      <path id="DejaVuSans-33" d="M 2597 2516 
Q 3050 2419 3304 2112 
Q 3559 1806 3559 1356 
Q 3559 666 3084 287 
Q 2609 -91 1734 -91 
Q 1441 -91 1130 -33 
Q 819 25 488 141 
L 488 750 
Q 750 597 1062 519 
Q 1375 441 1716 441 
Q 2309 441 2620 675 
Q 2931 909 2931 1356 
Q 2931 1769 2642 2001 
Q 2353 2234 1838 2234 
L 1294 2234 
L 1294 2753 
L 1863 2753 
Q 2328 2753 2575 2939 
Q 2822 3125 2822 3475 
Q 2822 3834 2567 4026 
Q 2313 4219 1838 4219 
Q 1578 4219 1281 4162 
Q 984 4106 628 3988 
L 628 4550 
Q 988 4650 1302 4700 
Q 1616 4750 1894 4750 
Q 2613 4750 3031 4423 
Q 3450 4097 3450 3541 
Q 3450 3153 3228 2886 
Q 3006 2619 2597 2516 
z
" transform="scale(0.015625)"/>
      <path id="DejaVuSans-2e" d="M 684 794 
L 1344 794 
L 1344 0 
L 684 0 
L 684 794 
z
" transform="scale(0.015625)"/>
      <path id="DejaVuSans-30" d="M 2034 4250 
Q 1547 4250 1301 3770 
Q 1056 3291 1056 2328 
Q 1056 1369 1301 889 
Q 1547 409 2034 409 
Q 2525 409 2770 889 
Q 3016 1369 3016 2328 
Q 3016 3291 2770 3770 
Q 2525 4250 2034 4250 
z
M 2034 4750 
Q 2819 4750 3233 4129 
Q 3647 3509 3647 2328 
Q 3647 1150 3233 529 
Q 2819 -91 2034 -91 
Q 1250 -91 836 529 
Q 422 1150 422 2328 
Q 422 3509 836 4129 
Q 1250 4750 2034 4750 
z
" transform="scale(0.015625)"/>
      <path id="DejaVuSans-6d" d="M 3328 2828 
Q 3544 3216 3844 3400 
Q 4144 3584 4550 3584 
Q 5097 3584 5394 3201 
Q 5691 2819 5691 2113 
L 5691 0 
L 5113 0 
L 5113 2094 
Q 5113 2597 4934 2840 
Q 4756 3084 4391 3084 
Q 3944 3084 3684 2787 
Q 3425 2491 3425 1978 
L 3425 0 
L 2847 0 
L 2847 2094 
Q 2847 2600 2669 2842 
Q 2491 3084 2119 3084 
Q 1678 3084 1418 2786 
Q 1159 2488 1159 1978 
L 1159 0 
L 581 0 
L 581 3500 
L 1159 3500 
L 1159 2956 
Q 1356 3278 1631 3431 
Q 1906 3584 2284 3584 
Q 2666 3584 2933 3390 
Q 3200 3197 3328 2828 
z
" transform="scale(0.015625)"/>
     </defs>
     <use xlink:href="#DejaVuSans-44"/>
     <use xlink:href="#DejaVuSans-20" transform="translate(77.001953 0)"/>
     <use xlink:href="#DejaVuSans-3d" transform="translate(108.789062 0)"/>
     <use xlink:href="#DejaVuSans-20" transform="translate(192.578125 0)"/>
     <use xlink:href="#DejaVuSans-33" transform="translate(224.365234 0)"/>
     <use xlink:href="#DejaVuSans-2e" transform="translate(287.988281 0)"/>
     <use xlink:href="#DejaVuSans-30" transform="translate(319.775391 0)"/>
     <use xlink:href="#DejaVuSans-30" transform="translate(383.398438 0)"/>
     <use xlink:href="#DejaVuSans-20" transform="translate(447.021484 0)"/>
     <use xlink:href="#DejaVuSans-6d" transform="translate(478.808594 0)"/>
    </g>
   </g>
   <g id="patch_5">
    <path d="M 399.087568 471.565209 
Q 399.087568 292.877838 399.087568 114.190466 
" style="fill: none; stroke: #004f9f; stroke-linecap: round"/>
    <path d="M 401.087568 467.565209 
L 399.087568 471.565209 
L 397.087568 467.565209 
" style="fill: none; stroke: #004f9f; stroke-linecap: round"/>
    <path d="M 397.087568 118.190466 
L 399.087568 114.190466 
L 401.087568 118.190466 
" style="fill: none; stroke: #004f9f; stroke-linecap: round"/>
   </g>
   <g id="text_2">
    <g id="patch_6">
     <path d="M 383.110895 299.2169 
L 447.029645 299.2169 
Q 448.529645 299.2169 448.529645 297.7169 
L 448.529645 288.038775 
Q 448.529645 286.538775 447.029645 286.538775 
L 383.110895 286.538775 
Q 381.610895 286.538775 381.610895 288.038775 
L 381.610895 297.7169 
Q 381.610895 299.2169 383.110895 299.2169 
z
" style="fill: #ffffff; opacity: 0.9"/>
    </g>
    <!-- T-T = 9.00 m -->
    <g style="fill: #004f9f" transform="translate(383.110895 295.637213) scale(0.1 -0.1)">
     <defs>
      <path id="DejaVuSans-54" d="M -19 4666 
L 3928 4666 
L 3928 4134 
L 2272 4134 
L 2272 0 
L 1638 0 
L 1638 4134 
L -19 4134 
L -19 4666 
z
" transform="scale(0.015625)"/>
      <path id="DejaVuSans-2d" d="M 313 2009 
L 1997 2009 
L 1997 1497 
L 313 1497 
L 313 2009 
z
" transform="scale(0.015625)"/>
      <path id="DejaVuSans-39" d="M 703 97 
L 703 672 
Q 941 559 1184 500 
Q 1428 441 1663 441 
Q 2288 441 2617 861 
Q 2947 1281 2994 2138 
Q 2813 1869 2534 1725 
Q 2256 1581 1919 1581 
Q 1219 1581 811 2004 
Q 403 2428 403 3163 
Q 403 3881 828 4315 
Q 1253 4750 1959 4750 
Q 2769 4750 3195 4129 
Q 3622 3509 3622 2328 
Q 3622 1225 3098 567 
Q 2575 -91 1691 -91 
Q 1453 -91 1209 -44 
Q 966 3 703 97 
z
M 1959 2075 
Q 2384 2075 2632 2365 
Q 2881 2656 2881 3163 
Q 2881 3666 2632 3958 
Q 2384 4250 1959 4250 
Q 1534 4250 1286 3958 
Q 1038 3666 1038 3163 
Q 1038 2656 1286 2365 
Q 1534 2075 1959 2075 
z
" transform="scale(0.015625)"/>
     </defs>
     <use xlink:href="#DejaVuSans-54"/>
     <use xlink:href="#DejaVuSans-2d" transform="translate(51.958984 0)"/>
     <use xlink:href="#DejaVuSans-54" transform="translate(78.917969 0)"/>
     <use xlink:href="#DejaVuSans-20" transform="translate(140.001953 0)"/>
     <use xlink:href="#DejaVuSans-3d" transform="translate(171.789062 0)"/>
     <use xlink:href="#DejaVuSans-20" transform="translate(255.578125 0)"/>
     <use xlink:href="#DejaVuSans-39" transform="translate(287.365234 0)"/>
     <use xlink:href="#DejaVuSans-2e" transform="translate(350.988281 0)"/>
     <use xlink:href="#DejaVuSans-30" transform="translate(382.775391 0)"/>
     <use xlink:href="#DejaVuSans-30" transform="translate(446.398438 0)"/>
     <use xlink:href="#DejaVuSans-20" transform="translate(510.021484 0)"/>
     <use xlink:href="#DejaVuSans-6d" transform="translate(541.808594 0)"/>
    </g>
   </g>
   <g id="text_3">
    <g id="patch_7">
     <path d="M 383.104865 190.699751 
L 444.830802 190.699751 
Q 446.180802 190.699751 446.180802 189.349751 
L 446.180802 180.639438 
Q 446.180802 179.289438 444.830802 179.289438 
L 383.104865 179.289438 
Q 381.754865 179.289438 381.754865 180.639438 
L 381.754865 189.349751 
Q 381.754865 190.699751 383.104865 190.699751 
z
" style="fill: #ffffff; opacity: 0.85"/>
    </g>
    <!-- HLL = 7.20 m -->
    <g style="fill: #2ca02c" transform="translate(383.104865 187.478032) scale(0.09 -0.09)">
     <defs>
      <path id="DejaVuSans-48" d="M 628 4666 
L 1259 4666 
L 1259 2753 
L 3553 2753 
L 3553 4666 
L 4184 4666 
L 4184 0 
L 3553 0 
L 3553 2222 
L 1259 2222 
L 1259 0 
L 628 0 
L 628 4666 
z
" transform="scale(0.015625)"/>
      <path id="DejaVuSans-4c" d="M 628 4666 
L 1259 4666 
L 1259 531 
L 3531 531 
L 3531 0 
L 628 0 
L 628 4666 
z
" transform="scale(0.015625)"/>
      <path id="DejaVuSans-37" d="M 525 4666 
L 3525 4666 
L 3525 4397 
L 1831 0 
L 1172 0 
L 2766 4134 
L 525 4134 
L 525 4666 
z
" transform="scale(0.015625)"/>
      <path id="DejaVuSans-32" d="M 1228 531 
L 3431 531 
L 3431 0 
L 469 0 
L 469 531 
Q 828 903 1448 1529 
Q 2069 2156 2228 2338 
Q 2531 2678 2651 2914 
Q 2772 3150 2772 3378 
Q 2772 3750 2511 3984 
Q 2250 4219 1831 4219 
Q 1534 4219 1204 4116 
Q 875 4013 500 3803 
L 500 4441 
Q 881 4594 1212 4672 
Q 1544 4750 1819 4750 
Q 2544 4750 2975 4387 
Q 3406 4025 3406 3419 
Q 3406 3131 3298 2873 
Q 3191 2616 2906 2266 
Q 2828 2175 2409 1742 
Q 1991 1309 1228 531 
z
" transform="scale(0.015625)"/>
     </defs>
     <use xlink:href="#DejaVuSans-48"/>
     <use xlink:href="#DejaVuSans-4c" transform="translate(75.195312 0)"/>
     <use xlink:href="#DejaVuSans-4c" transform="translate(130.908203 0)"/>
     <use xlink:href="#DejaVuSans-20" transform="translate(186.621094 0)"/>
     <use xlink:href="#DejaVuSans-3d" transform="translate(218.408203 0)"/>
     <use xlink:href="#DejaVuSans-20" transform="translate(302.197266 0)"/>
     <use xlink:href="#DejaVuSans-37" transform="translate(333.984375 0)"/>
     <use xlink:href="#DejaVuSans-2e" transform="translate(397.607422 0)"/>
     <use xlink:href="#DejaVuSans-32" transform="translate(429.394531 0)"/>
     <use xlink:href="#DejaVuSans-30" transform="translate(493.017578 0)"/>
     <use xlink:href="#DejaVuSans-20" transform="translate(556.640625 0)"/>
     <use xlink:href="#DejaVuSans-6d" transform="translate(588.427734 0)"/>
    </g>
   </g>
   <g id="text_4">
    <g id="patch_8">
     <path d="M 383.104865 377.697372 
L 443.077209 377.697372 
Q 444.427209 377.697372 444.427209 376.347372 
L 444.427209 367.63706 
Q 444.427209 366.28706 443.077209 366.28706 
L 383.104865 366.28706 
Q 381.754865 366.28706 381.754865 367.63706 
L 381.754865 376.347372 
Q 381.754865 377.697372 383.104865 377.697372 
z
" style="fill: #ffffff; opacity: 0.85"/>
    </g>
    <!-- LLL = 2.52 m -->
    <g style="fill: #d62728" transform="translate(383.104865 374.475654) scale(0.09 -0.09)">
     <defs>
      <path id="DejaVuSans-35" d="M 691 4666 
L 3169 4666 
L 3169 4134 
L 1269 4134 
L 1269 2991 
Q 1406 3038 1543 3061 
Q 1681 3084 1819 3084 
Q 2600 3084 3056 2656 
Q 3513 2228 3513 1497 
Q 3513 744 3044 326 
Q 2575 -91 1722 -91 
Q 1428 -91 1123 -41 
Q 819 9 494 109 
L 494 744 
Q 775 591 1075 516 
Q 1375 441 1709 441 
Q 2250 441 2565 725 
Q 2881 1009 2881 1497 
Q 2881 1984 2565 2268 
Q 2250 2553 1709 2553 
Q 1456 2553 1204 2497 
Q 953 2441 691 2322 
L 691 4666 
z
" transform="scale(0.015625)"/>
     </defs>
     <use xlink:href="#DejaVuSans-4c"/>
     <use xlink:href="#DejaVuSans-4c" transform="translate(55.712891 0)"/>
     <use xlink:href="#DejaVuSans-4c" transform="translate(111.425781 0)"/>
     <use xlink:href="#DejaVuSans-20" transform="translate(167.138672 0)"/>
     <use xlink:href="#DejaVuSans-3d" transform="translate(198.925781 0)"/>
     <use xlink:href="#DejaVuSans-20" transform="translate(282.714844 0)"/>
     <use xlink:href="#DejaVuSans-32" transform="translate(314.501953 0)"/>
     <use xlink:href="#DejaVuSans-2e" transform="translate(378.125 0)"/>
     <use xlink:href="#DejaVuSans-35" transform="translate(409.912109 0)"/>
     <use xlink:href="#DejaVuSans-32" transform="translate(473.535156 0)"/>
     <use xlink:href="#DejaVuSans-20" transform="translate(537.158203 0)"/>
     <use xlink:href="#DejaVuSans-6d" transform="translate(568.945312 0)"/>
    </g>
   </g>
   <g id="text_5">
    <g id="patch_9">
     <path d="M 383.104865 284.198562 
L 438.062521 284.198562 
Q 439.412521 284.198562 439.412521 282.848562 
L 439.412521 274.138249 
Q 439.412521 272.788249 438.062521 272.788249 
L 383.104865 272.788249 
Q 381.754865 272.788249 381.754865 274.138249 
L 381.754865 282.848562 
Q 381.754865 284.198562 383.104865 284.198562 
z
" style="fill: #ffffff; opacity: 0.85"/>
    </g>
    <!-- LL = 4.86 m -->
    <g style="fill: #1f77b4" transform="translate(383.104865 280.976843) scale(0.09 -0.09)">
     <defs>
      <path id="DejaVuSans-34" d="M 2419 4116 
L 825 1625 
L 2419 1625 
L 2419 4116 
z
M 2253 4666 
L 3047 4666 
L 3047 1625 
L 3713 1625 
L 3713 1100 
L 3047 1100 
L 3047 0 
L 2419 0 
L 2419 1100 
L 313 1100 
L 313 1709 
L 2253 4666 
z
" transform="scale(0.015625)"/>
      <path id="DejaVuSans-38" d="M 2034 2216 
Q 1584 2216 1326 1975 
Q 1069 1734 1069 1313 
Q 1069 891 1326 650 
Q 1584 409 2034 409 
Q 2484 409 2743 651 
Q 3003 894 3003 1313 
Q 3003 1734 2745 1975 
Q 2488 2216 2034 2216 
z
M 1403 2484 
Q 997 2584 770 2862 
Q 544 3141 544 3541 
Q 544 4100 942 4425 
Q 1341 4750 2034 4750 
Q 2731 4750 3128 4425 
Q 3525 4100 3525 3541 
Q 3525 3141 3298 2862 
Q 3072 2584 2669 2484 
Q 3125 2378 3379 2068 
Q 3634 1759 3634 1313 
Q 3634 634 3220 271 
Q 2806 -91 2034 -91 
Q 1263 -91 848 271 
Q 434 634 434 1313 
Q 434 1759 690 2068 
Q 947 2378 1403 2484 
z
M 1172 3481 
Q 1172 3119 1398 2916 
Q 1625 2713 2034 2713 
Q 2441 2713 2670 2916 
Q 2900 3119 2900 3481 
Q 2900 3844 2670 4047 
Q 2441 4250 2034 4250 
Q 1625 4250 1398 4047 
Q 1172 3844 1172 3481 
z
" transform="scale(0.015625)"/>
      <path id="DejaVuSans-36" d="M 2113 2584 
Q 1688 2584 1439 2293 
Q 1191 2003 1191 1497 
Q 1191 994 1439 701 
Q 1688 409 2113 409 
Q 2538 409 2786 701 
Q 3034 994 3034 1497 
Q 3034 2003 2786 2293 
Q 2538 2584 2113 2584 
z
M 3366 4563 
L 3366 3988 
Q 3128 4100 2886 4159 
Q 2644 4219 2406 4219 
Q 1781 4219 1451 3797 
Q 1122 3375 1075 2522 
Q 1259 2794 1537 2939 
Q 1816 3084 2150 3084 
Q 2853 3084 3261 2657 
Q 3669 2231 3669 1497 
Q 3669 778 3244 343 
Q 2819 -91 2113 -91 
Q 1303 -91 875 529 
Q 447 1150 447 2328 
Q 447 3434 972 4092 
Q 1497 4750 2381 4750 
Q 2619 4750 2861 4703 
Q 3103 4656 3366 4563 
z
" transform="scale(0.015625)"/>
     </defs>
     <use xlink:href="#DejaVuSans-4c"/>
     <use xlink:href="#DejaVuSans-4c" transform="translate(55.712891 0)"/>
     <use xlink:href="#DejaVuSans-20" transform="translate(111.425781 0)"/>
     <use xlink:href="#DejaVuSans-3d" transform="translate(143.212891 0)"/>
     <use xlink:href="#DejaVuSans-20" transform="translate(227.001953 0)"/>
     <use xlink:href="#DejaVuSans-34" transform="translate(258.789062 0)"/>
     <use xlink:href="#DejaVuSans-2e" transform="translate(322.412109 0)"/>
     <use xlink:href="#DejaVuSans-38" transform="translate(354.199219 0)"/>
     <use xlink:href="#DejaVuSans-36" transform="translate(417.822266 0)"/>
     <use xlink:href="#DejaVuSans-20" transform="translate(481.445312 0)"/>
     <use xlink:href="#DejaVuSans-6d" transform="translate(513.232422 0)"/>
    </g>
   </g>
   <g id="text_6">
    <!-- Vertical Flat Vessels -->
    <g transform="translate(235.712813 63.12) scale(0.12 -0.12)">
     <defs>
      <path id="DejaVuSans-56" d="M 1831 0 
L 50 4666 
L 709 4666 
L 2188 738 
L 3669 4666 
L 4325 4666 
L 2547 0 
L 1831 0 
z
" transform="scale(0.015625)"/>
      <path id="DejaVuSans-65" d="M 3597 1894 
L 3597 1613 
L 953 1613 
Q 991 1019 1311 708 
Q 1631 397 2203 397 
Q 2534 397 2845 478 
Q 3156 559 3463 722 
L 3463 178 
Q 3153 47 2828 -22 
Q 2503 -91 2169 -91 
Q 1331 -91 842 396 
Q 353 884 353 1716 
Q 353 2575 817 3079 
Q 1281 3584 2069 3584 
Q 2775 3584 3186 3129 
Q 3597 2675 3597 1894 
z
M 3022 2063 
Q 3016 2534 2758 2815 
Q 2500 3097 2075 3097 
Q 1594 3097 1305 2825 
Q 1016 2553 972 2059 
L 3022 2063 
z
" transform="scale(0.015625)"/>
      <path id="DejaVuSans-72" d="M 2631 2963 
Q 2534 3019 2420 3045 
Q 2306 3072 2169 3072 
Q 1681 3072 1420 2755 
Q 1159 2438 1159 1844 
L 1159 0 
L 581 0 
L 581 3500 
L 1159 3500 
L 1159 2956 
Q 1341 3275 1631 3429 
Q 1922 3584 2338 3584 
Q 2397 3584 2469 3576 
Q 2541 3569 2628 3553 
L 2631 2963 
z
" transform="scale(0.015625)"/>
      <path id="DejaVuSans-74" d="M 1172 4494 
L 1172 3500 
L 2356 3500 
L 2356 3053 
L 1172 3053 
L 1172 1153 
Q 1172 725 1289 603 
Q 1406 481 1766 481 
L 2356 481 
L 2356 0 
L 1766 0 
Q 1100 0 847 248 
Q 594 497 594 1153 
L 594 3053 
L 172 3053 
L 172 3500 
L 594 3500 
L 594 4494 
L 1172 4494 
z
" transform="scale(0.015625)"/>
      <path id="DejaVuSans-69" d="M 603 3500 
L 1178 3500 
L 1178 0 
L 603 0 
L 603 3500 
z
M 603 4863 
L 1178 4863 
L 1178 4134 
L 603 4134 
L 603 4863 
z
" transform="scale(0.015625)"/>
      <path id="DejaVuSans-63" d="M 3122 3366 
L 3122 2828 
Q 2878 2963 2633 3030 
Q 2388 3097 2138 3097 
Q 1578 3097 1268 2742 
Q 959 2388 959 1747 
Q 959 1106 1268 751 
Q 1578 397 2138 397 
Q 2388 397 2633 464 
Q 2878 531 3122 666 
L 3122 134 
Q 2881 22 2623 -34 
Q 2366 -91 2075 -91 
Q 1284 -91 818 406 
Q 353 903 353 1747 
Q 353 2603 823 3093 
Q 1294 3584 2113 3584 
Q 2378 3584 2631 3529 
Q 2884 3475 3122 3366 
z
" transform="scale(0.015625)"/>
      <path id="DejaVuSans-61" d="M 2194 1759 
Q 1497 1759 1228 1600 
Q 959 1441 959 1056 
Q 959 750 1161 570 
Q 1363 391 1709 391 
Q 2188 391 2477 730 
Q 2766 1069 2766 1631 
L 2766 1759 
L 2194 1759 
z
M 3341 1997 
L 3341 0 
L 2766 0 
L 2766 531 
Q 2569 213 2275 61 
Q 1981 -91 1556 -91 
Q 1019 -91 701 211 
Q 384 513 384 1019 
Q 384 1609 779 1909 
Q 1175 2209 1959 2209 
L 2766 2209 
L 2766 2266 
Q 2766 2663 2505 2880 
Q 2244 3097 1772 3097 
Q 1472 3097 1187 3025 
Q 903 2953 641 2809 
L 641 3341 
Q 956 3463 1253 3523 
Q 1550 3584 1831 3584 
Q 2591 3584 2966 3190 
Q 3341 2797 3341 1997 
z
" transform="scale(0.015625)"/>
      <path id="DejaVuSans-6c" d="M 603 4863 
L 1178 4863 
L 1178 0 
L 603 0 
L 603 4863 
z
" transform="scale(0.015625)"/>
      <path id="DejaVuSans-46" d="M 628 4666 
L 3309 4666 
L 3309 4134 
L 1259 4134 
L 1259 2759 
L 3109 2759 
L 3109 2228 
L 1259 2228 
L 1259 0 
L 628 0 
L 628 4666 
z
" transform="scale(0.015625)"/>
      <path id="DejaVuSans-73" d="M 2834 3397 
L 2834 2853 
Q 2591 2978 2328 3040 
Q 2066 3103 1784 3103 
Q 1356 3103 1142 2972 
Q 928 2841 928 2578 
Q 928 2378 1081 2264 
Q 1234 2150 1697 2047 
L 1894 2003 
Q 2506 1872 2764 1633 
Q 3022 1394 3022 966 
Q 3022 478 2636 193 
Q 2250 -91 1575 -91 
Q 1294 -91 989 -36 
Q 684 19 347 128 
L 347 722 
Q 666 556 975 473 
Q 1284 391 1588 391 
Q 1994 391 2212 530 
Q 2431 669 2431 922 
Q 2431 1156 2273 1281 
Q 2116 1406 1581 1522 
L 1381 1569 
Q 847 1681 609 1914 
Q 372 2147 372 2553 
Q 372 3047 722 3315 
Q 1072 3584 1716 3584 
Q 2034 3584 2315 3537 
Q 2597 3491 2834 3397 
z
" transform="scale(0.015625)"/>
     </defs>
     <use xlink:href="#DejaVuSans-56"/>
     <use xlink:href="#DejaVuSans-65" transform="translate(60.658203 0)"/>
     <use xlink:href="#DejaVuSans-72" transform="translate(122.181641 0)"/>
     <use xlink:href="#DejaVuSans-74" transform="translate(163.294922 0)"/>
     <use xlink:href="#DejaVuSans-69" transform="translate(202.503906 0)"/>
     <use xlink:href="#DejaVuSans-63" transform="translate(230.287109 0)"/>
     <use xlink:href="#DejaVuSans-61" transform="translate(285.267578 0)"/>
     <use xlink:href="#DejaVuSans-6c" transform="translate(346.546875 0)"/>
     <use xlink:href="#DejaVuSans-20" transform="translate(374.330078 0)"/>
     <use xlink:href="#DejaVuSans-46" transform="translate(406.117188 0)"/>
     <use xlink:href="#DejaVuSans-6c" transform="translate(463.636719 0)"/>
     <use xlink:href="#DejaVuSans-61" transform="translate(491.419922 0)"/>
     <use xlink:href="#DejaVuSans-74" transform="translate(552.699219 0)"/>
     <use xlink:href="#DejaVuSans-20" transform="translate(591.908203 0)"/>
     <use xlink:href="#DejaVuSans-56" transform="translate(623.695312 0)"/>
     <use xlink:href="#DejaVuSans-65" transform="translate(684.353516 0)"/>
     <use xlink:href="#DejaVuSans-73" transform="translate(745.876953 0)"/>
     <use xlink:href="#DejaVuSans-73" transform="translate(797.976562 0)"/>
     <use xlink:href="#DejaVuSans-65" transform="translate(850.076172 0)"/>
     <use xlink:href="#DejaVuSans-6c" transform="translate(911.599609 0)"/>
     <use xlink:href="#DejaVuSans-73" transform="translate(939.382812 0)"/>
    </g>
   </g>
  </g>
 </g>
 <defs>
  <clipPath id="p597801d1cf">
   <rect x="151.355676" y="69.12" width="287.688649" height="443.52"/>
  </clipPath>
 </defs>
</svg>
