<?xml version="1.0" encoding="utf-8" standalone="no"?>
<!DOCTYPE svg PUBLIC "-//W3C//DTD SVG 1.1//EN"
  "http://www.w3.org/Graphics/SVG/1.1/DTD/svg11.dtd">
<svg xmlns:xlink="http://www.w3.org/1999/xlink" width="576pt" height="576pt" viewBox="0 0 576 576" xmlns="http://www.w3.org/2000/svg" version="1.1">
 <metadata>
  <rdf:RDF xmlns:dc="http://purl.org/dc/elements/1.1/" xmlns:cc="http://creativecommons.org/ns#" xmlns:rdf="http://www.w3.org/1999/02/22-rdf-syntax-ns#">
   <cc:Work>
    <dc:type rdf:resource="http://purl.org/dc/dcmitype/StillImage"/>
    <dc:date>2025-11-19T10:21:47.104223</dc:date>
    <dc:format>image/svg+xml</dc:format>
    <dc:creator>
     <cc:Agent>
      <dc:title>Matplotlib v3.10.7, https://matplotlib.org/</dc:title>
     </cc:Agent>
    </dc:creator>
   </cc:Work>
  </rdf:RDF>
 </metadata>
 <defs>
  <style type="text/css">*{stroke-linejoin: round; stroke-linecap: butt}</style>
 </defs>
 <g id="figure_1">
  <g id="patch_1">
   <path d="M 0 576 
L 576 576 
L 576 0 
L 0 0 
z
" style="fill: #ffffff"/>
  </g>
  <g id="axes_1">
   <g id="patch_2">
    <path d="M 72 375.401946 
L 518.4 375.401946 
L 518.4 206.358054 
L 72 206.358054 
z
" style="fill: #ffffff"/>
   </g>
   <g id="patch_3">
    <path d="M 110.788481 360.034319 
L 479.611519 360.034319 
L 479.611519 221.725681 
L 110.788481 221.725681 
L 110.788481 360.034319 
z
" clip-path="url(#pc3c25b8a0b)" style="fill: none; stroke: #000000; stroke-linejoin: miter"/>
   </g>
   <g id="matplotlib.axis_1">
    <g id="xtick_1">
     <g id="line2d_1">
      <path d="M 110.788481 375.401946 
L 110.788481 206.358054 
" clip-path="url(#pc3c25b8a0b)" style="fill: none; stroke-dasharray: 2.96,1.28; stroke-dashoffset: 0; stroke: #b0b0b0; stroke-opacity: 0.6; stroke-width: 0.8"/>
     </g>
     <g id="line2d_2">
      <defs>
       <path id="m6cf4aadfed" d="M 0 0 
L 0 3.5 
" style="stroke: #000000; stroke-width: 0.8"/>
      </defs>
      <g>
       <use xlink:href="#m6cf4aadfed" x="110.788481" y="375.401946" style="stroke: #000000; stroke-width: 0.8"/>
      </g>
     </g>
     <g id="text_1">
      <!-- 0 -->
      <g transform="translate(107.607231 390.000384) scale(0.1 -0.1)">
       <defs>
        <path id="DejaVuSans-30" d="M 2034 4250 
Q 1547 4250 1301 3770 
Q 1056 3291 1056 2328 
Q 1056 1369 1301 889 
Q 1547 409 2034 409 
Q 2525 409 2770 889 
Q 3016 1369 3016 2328 
Q 3016 3291 2770 3770 
Q 2525 4250 2034 4250 
z
M 2034 4750 
Q 2819 4750 3233 4129 
Q 3647 3509 3647 2328 
Q 3647 1150 3233 529 
Q 2819 -91 2034 -91 
Q 1250 -91 836 529 
Q 422 1150 422 2328 
Q 422 3509 836 4129 
Q 1250 4750 2034 4750 
z
" transform="scale(0.015625)"/>
       </defs>
       <use xlink:href="#DejaVuSans-30"/>
      </g>
     </g>
    </g>
    <g id="xtick_2">
     <g id="line2d_3">
      <path d="M 172.258988 375.401946 
L 172.258988 206.358054 
" clip-path="url(#pc3c25b8a0b)" style="fill: none; stroke-dasharray: 2.96,1.28; stroke-dashoffset: 0; stroke: #b0b0b0; stroke-opacity: 0.6; stroke-width: 0.8"/>
     </g>
     <g id="line2d_4">
      <g>
       <use xlink:href="#m6cf4aadfed" x="172.258988" y="375.401946" style="stroke: #000000; stroke-width: 0.8"/>
      </g>
     </g>
     <g id="text_2">
      <!-- 2 -->
      <g transform="translate(169.077738 390.000384) scale(0.1 -0.1)">
       <defs>
        <path id="DejaVuSans-32" d="M 1228 531 
L 3431 531 
L 3431 0 
L 469 0 
L 469 531 
Q 828 903 1448 1529 
Q 2069 2156 2228 2338 
Q 2531 2678 2651 2914 
Q 2772 3150 2772 3378 
Q 2772 3750 2511 3984 
Q 2250 4219 1831 4219 
Q 1534 4219 1204 4116 
Q 875 4013 500 3803 
L 500 4441 
Q 881 4594 1212 4672 
Q 1544 4750 1819 4750 
Q 2544 4750 2975 4387 
Q 3406 4025 3406 3419 
Q 3406 3131 3298 2873 
Q 3191 2616 2906 2266 
Q 2828 2175 2409 1742 
Q 1991 1309 1228 531 
z
" transform="scale(0.015625)"/>
       </defs>
       <use xlink:href="#DejaVuSans-32"/>
      </g>
     </g>
    </g>
    <g id="xtick_3">
     <g id="line2d_5">
      <path d="M 233.729494 375.401946 
L 233.729494 206.358054 
" clip-path="url(#pc3c25b8a0b)" style="fill: none; stroke-dasharray: 2.96,1.28; stroke-dashoffset: 0; stroke: #b0b0b0; stroke-opacity: 0.6; stroke-width: 0.8"/>
     </g>
     <g id="line2d_6">
      <g>
       <use xlink:href="#m6cf4aadfed" x="233.729494" y="375.401946" style="stroke: #000000; stroke-width: 0.8"/>
      </g>
     </g>
     <g id="text_3">
      <!-- 4 -->
      <g transform="translate(230.548244 390.000384) scale(0.1 -0.1)">
       <defs>
        <path id="DejaVuSans-34" d="M 2419 4116 
L 825 1625 
L 2419 1625 
L 2419 4116 
z
M 2253 4666 
L 3047 4666 
L 3047 1625 
L 3713 1625 
L 3713 1100 
L 3047 1100 
L 3047 0 
L 2419 0 
L 2419 1100 
L 313 1100 
L 313 1709 
L 2253 4666 
z
" transform="scale(0.015625)"/>
       </defs>
       <use xlink:href="#DejaVuSans-34"/>
      </g>
     </g>
    </g>
    <g id="xtick_4">
     <g id="line2d_7">
      <path d="M 295.2 375.401946 
L 295.2 206.358054 
" clip-path="url(#pc3c25b8a0b)" style="fill: none; stroke-dasharray: 2.96,1.28; stroke-dashoffset: 0; stroke: #b0b0b0; stroke-opacity: 0.6; stroke-width: 0.8"/>
     </g>
     <g id="line2d_8">
      <g>
       <use xlink:href="#m6cf4aadfed" x="295.2" y="375.401946" style="stroke: #000000; stroke-width: 0.8"/>
      </g>
     </g>
     <g id="text_4">
      <!-- 6 -->
      <g transform="translate(292.01875 390.000384) scale(0.1 -0.1)">
       <defs>
        <path id="DejaVuSans-36" d="M 2113 2584 
Q 1688 2584 1439 2293 
Q 1191 2003 1191 1497 
Q 1191 994 1439 701 
Q 1688 409 2113 409 
Q 2538 409 2786 701 
Q 3034 994 3034 1497 
Q 3034 2003 2786 2293 
Q 2538 2584 2113 2584 
z
M 3366 4563 
L 3366 3988 
Q 3128 4100 2886 4159 
Q 2644 4219 2406 4219 
Q 1781 4219 1451 3797 
Q 1122 3375 1075 2522 
Q 1259 2794 1537 2939 
Q 1816 3084 2150 3084 
Q 2853 3084 3261 2657 
Q 3669 2231 3669 1497 
Q 3669 778 3244 343 
Q 2819 -91 2113 -91 
Q 1303 -91 875 529 
Q 447 1150 447 2328 
Q 447 3434 972 4092 
Q 1497 4750 2381 4750 
Q 2619 4750 2861 4703 
Q 3103 4656 3366 4563 
z
" transform="scale(0.015625)"/>
       </defs>
       <use xlink:href="#DejaVuSans-36"/>
      </g>
     </g>
    </g>
    <g id="xtick_5">
     <g id="line2d_9">
      <path d="M 356.670506 375.401946 
L 356.670506 206.358054 
" clip-path="url(#pc3c25b8a0b)" style="fill: none; stroke-dasharray: 2.96,1.28; stroke-dashoffset: 0; stroke: #b0b0b0; stroke-opacity: 0.6; stroke-width: 0.8"/>
     </g>
     <g id="line2d_10">
      <g>
       <use xlink:href="#m6cf4aadfed" x="356.670506" y="375.401946" style="stroke: #000000; stroke-width: 0.8"/>
      </g>
     </g>
     <g id="text_5">
      <!-- 8 -->
      <g transform="translate(353.489256 390.000384) scale(0.1 -0.1)">
       <defs>
        <path id="DejaVuSans-38" d="M 2034 2216 
Q 1584 2216 1326 1975 
Q 1069 1734 1069 1313 
Q 1069 891 1326 650 
Q 1584 409 2034 409 
Q 2484 409 2743 651 
Q 3003 894 3003 1313 
Q 3003 1734 2745 1975 
Q 2488 2216 2034 2216 
z
M 1403 2484 
Q 997 2584 770 2862 
Q 544 3141 544 3541 
Q 544 4100 942 4425 
Q 1341 4750 2034 4750 
Q 2731 4750 3128 4425 
Q 3525 4100 3525 3541 
Q 3525 3141 3298 2862 
Q 3072 2584 2669 2484 
Q 3125 2378 3379 2068 
Q 3634 1759 3634 1313 
Q 3634 634 3220 271 
Q 2806 -91 2034 -91 
Q 1263 -91 848 271 
Q 434 634 434 1313 
Q 434 1759 690 2068 
Q 947 2378 1403 2484 
z
M 1172 3481 
Q 1172 3119 1398 2916 
Q 1625 2713 2034 2713 
Q 2441 2713 2670 2916 
Q 2900 3119 2900 3481 
Q 2900 3844 2670 4047 
Q 2441 4250 2034 4250 
Q 1625 4250 1398 4047 
Q 1172 3844 1172 3481 
z
" transform="scale(0.015625)"/>
       </defs>
       <use xlink:href="#DejaVuSans-38"/>
      </g>
     </g>
    </g>
    <g id="xtick_6">
     <g id="line2d_11">
      <path d="M 418.141012 375.401946 
L 418.141012 206.358054 
" clip-path="url(#pc3c25b8a0b)" style="fill: none; stroke-dasharray: 2.96,1.28; stroke-dashoffset: 0; stroke: #b0b0b0; stroke-opacity: 0.6; stroke-width: 0.8"/>
     </g>
     <g id="line2d_12">
      <g>
       <use xlink:href="#m6cf4aadfed" x="418.141012" y="375.401946" style="stroke: #000000; stroke-width: 0.8"/>
      </g>
     </g>
     <g id="text_6">
      <!-- 10 -->
      <g transform="translate(411.778512 390.000384) scale(0.1 -0.1)">
       <defs>
        <path id="DejaVuSans-31" d="M 794 531 
L 1825 531 
L 1825 4091 
L 703 3866 
L 703 4441 
L 1819 4666 
L 2450 4666 
L 2450 531 
L 3481 531 
L 3481 0 
L 794 0 
L 794 531 
z
" transform="scale(0.015625)"/>
       </defs>
       <use xlink:href="#DejaVuSans-31"/>
       <use xlink:href="#DejaVuSans-30" transform="translate(63.623047 0)"/>
      </g>
     </g>
    </g>
    <g id="xtick_7">
     <g id="line2d_13">
      <path d="M 479.611519 375.401946 
L 479.611519 206.358054 
" clip-path="url(#pc3c25b8a0b)" style="fill: none; stroke-dasharray: 2.96,1.28; stroke-dashoffset: 0; stroke: #b0b0b0; stroke-opacity: 0.6; stroke-width: 0.8"/>
     </g>
     <g id="line2d_14">
      <g>
       <use xlink:href="#m6cf4aadfed" x="479.611519" y="375.401946" style="stroke: #000000; stroke-width: 0.8"/>
      </g>
     </g>
     <g id="text_7">
      <!-- 12 -->
      <g transform="translate(473.249019 390.000384) scale(0.1 -0.1)">
       <use xlink:href="#DejaVuSans-31"/>
       <use xlink:href="#DejaVuSans-32" transform="translate(63.623047 0)"/>
      </g>
     </g>
    </g>
   </g>
   <g id="matplotlib.axis_2">
    <g id="ytick_1">
     <g id="line2d_15">
      <path d="M 72 352.350506 
L 518.4 352.350506 
" clip-path="url(#pc3c25b8a0b)" style="fill: none; stroke-dasharray: 2.96,1.28; stroke-dashoffset: 0; stroke: #b0b0b0; stroke-opacity: 0.6; stroke-width: 0.8"/>
     </g>
     <g id="line2d_16">
      <defs>
       <path id="m66621be808" d="M 0 0 
L -3.5 0 
" style="stroke: #000000; stroke-width: 0.8"/>
      </defs>
      <g>
       <use xlink:href="#m66621be808" x="72" y="352.350506" style="stroke: #000000; stroke-width: 0.8"/>
      </g>
     </g>
     <g id="text_8">
      <!-- −2 -->
      <g transform="translate(50.257812 356.149725) scale(0.1 -0.1)">
       <defs>
        <path id="DejaVuSans-2212" d="M 678 2272 
L 4684 2272 
L 4684 1741 
L 678 1741 
L 678 2272 
z
" transform="scale(0.015625)"/>
       </defs>
       <use xlink:href="#DejaVuSans-2212"/>
       <use xlink:href="#DejaVuSans-32" transform="translate(83.789062 0)"/>
      </g>
     </g>
    </g>
    <g id="ytick_2">
     <g id="line2d_17">
      <path d="M 72 321.615253 
L 518.4 321.615253 
" clip-path="url(#pc3c25b8a0b)" style="fill: none; stroke-dasharray: 2.96,1.28; stroke-dashoffset: 0; stroke: #b0b0b0; stroke-opacity: 0.6; stroke-width: 0.8"/>
     </g>
     <g id="line2d_18">
      <g>
       <use xlink:href="#m66621be808" x="72" y="321.615253" style="stroke: #000000; stroke-width: 0.8"/>
      </g>
     </g>
     <g id="text_9">
      <!-- −1 -->
      <g transform="translate(50.257812 325.414472) scale(0.1 -0.1)">
       <use xlink:href="#DejaVuSans-2212"/>
       <use xlink:href="#DejaVuSans-31" transform="translate(83.789062 0)"/>
      </g>
     </g>
    </g>
    <g id="ytick_3">
     <g id="line2d_19">
      <path d="M 72 290.88 
L 518.4 290.88 
" clip-path="url(#pc3c25b8a0b)" style="fill: none; stroke-dasharray: 2.96,1.28; stroke-dashoffset: 0; stroke: #b0b0b0; stroke-opacity: 0.6; stroke-width: 0.8"/>
     </g>
     <g id="line2d_20">
      <g>
       <use xlink:href="#m66621be808" x="72" y="290.88" style="stroke: #000000; stroke-width: 0.8"/>
      </g>
     </g>
     <g id="text_10">
      <!-- 0 -->
      <g transform="translate(58.6375 294.679219) scale(0.1 -0.1)">
       <use xlink:href="#DejaVuSans-30"/>
      </g>
     </g>
    </g>
    <g id="ytick_4">
     <g id="line2d_21">
      <path d="M 72 260.144747 
L 518.4 260.144747 
" clip-path="url(#pc3c25b8a0b)" style="fill: none; stroke-dasharray: 2.96,1.28; stroke-dashoffset: 0; stroke: #b0b0b0; stroke-opacity: 0.6; stroke-width: 0.8"/>
     </g>
     <g id="line2d_22">
      <g>
       <use xlink:href="#m66621be808" x="72" y="260.144747" style="stroke: #000000; stroke-width: 0.8"/>
      </g>
     </g>
     <g id="text_11">
      <!-- 1 -->
      <g transform="translate(58.6375 263.943966) scale(0.1 -0.1)">
       <use xlink:href="#DejaVuSans-31"/>
      </g>
     </g>
    </g>
    <g id="ytick_5">
     <g id="line2d_23">
      <path d="M 72 229.409494 
L 518.4 229.409494 
" clip-path="url(#pc3c25b8a0b)" style="fill: none; stroke-dasharray: 2.96,1.28; stroke-dashoffset: 0; stroke: #b0b0b0; stroke-opacity: 0.6; stroke-width: 0.8"/>
     </g>
     <g id="line2d_24">
      <g>
       <use xlink:href="#m66621be808" x="72" y="229.409494" style="stroke: #000000; stroke-width: 0.8"/>
      </g>
     </g>
     <g id="text_12">
      <!-- 2 -->
      <g transform="translate(58.6375 233.208713) scale(0.1 -0.1)">
       <use xlink:href="#DejaVuSans-32"/>
      </g>
     </g>
    </g>
   </g>
   <g id="line2d_25">
    <path d="M 110.788481 221.725681 
L 110.478454 221.731474 
L 110.16886 221.748845 
L 109.86013 221.777771 
L 109.552697 221.818211 
L 109.246989 221.870107 
L 108.943434 221.933389 
L 108.642454 222.007967 
L 108.344471 222.093737 
L 108.0499 222.19058 
L 107.759153 222.298361 
L 107.472635 222.416928 
L 107.190747 222.546116 
L 106.913883 222.685746 
L 106.642427 222.835622 
L 106.376761 222.995534 
L 106.117255 223.16526 
L 105.86427 223.344562 
L 105.618161 223.533191 
L 105.37927 223.730882 
L 105.147932 223.93736 
L 104.924469 224.152337 
L 104.709194 224.375511 
L 104.502406 224.606573 
L 104.304396 224.845199 
L 104.115438 225.091056 
L 103.935798 225.3438 
L 103.765725 225.60308 
L 103.605457 225.868532 
L 103.455219 226.139786 
L 102.402898 228.166711 
L 101.38419 230.210736 
L 100.399371 232.271303 
L 99.448711 234.34785 
L 98.532467 236.439811 
L 97.650891 238.546616 
L 96.804222 240.66769 
L 95.992692 242.802456 
L 95.216521 244.95033 
L 94.475921 247.110727 
L 93.771095 249.283058 
L 93.102234 251.466731 
L 92.469521 253.661151 
L 91.873128 255.865719 
L 91.313217 258.079834 
L 90.789943 260.302892 
L 90.303446 262.534287 
L 89.853861 264.773411 
L 89.441309 267.019653 
L 89.065902 269.272402 
L 88.727745 271.531041 
L 88.426927 273.794957 
L 88.163532 276.06353 
L 87.937632 278.336144 
L 87.749287 280.612178 
L 87.598549 282.891011 
L 87.48546 285.172023 
L 87.410051 287.454591 
L 87.372341 289.738093 
L 87.372341 292.021907 
L 87.410051 294.305409 
L 87.48546 296.587977 
L 87.598549 298.868989 
L 87.749287 301.147822 
L 87.937632 303.423856 
L 88.163532 305.69647 
L 88.426927 307.965043 
L 88.727745 310.228959 
L 89.065902 312.487598 
L 89.441309 314.740347 
L 89.853861 316.986589 
L 90.303446 319.225713 
L 90.789943 321.457108 
L 91.313217 323.680166 
L 91.873128 325.894281 
L 92.469521 328.098849 
L 93.102234 330.293269 
L 93.771095 332.476942 
L 94.475921 334.649273 
L 95.216521 336.80967 
L 95.992692 338.957544 
L 96.804222 341.09231 
L 97.650891 343.213384 
L 98.532467 345.320189 
L 99.448711 347.41215 
L 100.399371 349.488697 
L 101.38419 351.549264 
L 102.402898 353.593289 
L 103.455219 355.620214 
L 103.605457 355.891468 
L 103.765725 356.15692 
L 103.935798 356.4162 
L 104.115438 356.668944 
L 104.304396 356.914801 
L 104.502406 357.153427 
L 104.709194 357.384489 
L 104.924469 357.607663 
L 105.147932 357.82264 
L 105.37927 358.029118 
L 105.618161 358.226809 
L 105.86427 358.415438 
L 106.117255 358.59474 
L 106.376761 358.764466 
L 106.642427 358.924378 
L 106.913883 359.074254 
L 107.190747 359.213884 
L 107.472635 359.343072 
L 107.759153 359.461639 
L 108.0499 359.56942 
L 108.344471 359.666263 
L 108.642454 359.752033 
L 108.943434 359.826611 
L 109.246989 359.889893 
L 109.552697 359.941789 
L 109.86013 359.982229 
L 110.16886 360.011155 
L 110.478454 360.028526 
L 110.788481 360.034319 
" clip-path="url(#pc3c25b8a0b)" style="fill: none; stroke: #000000; stroke-width: 1.5; stroke-linecap: square"/>
   </g>
   <g id="line2d_26">
    <path d="M 479.611519 221.725681 
L 479.921546 221.731474 
L 480.23114 221.748845 
L 480.53987 221.777771 
L 480.847303 221.818211 
L 481.153011 221.870107 
L 481.456566 221.933389 
L 481.757546 222.007967 
L 482.055529 222.093737 
L 482.3501 222.19058 
L 482.640847 222.298361 
L 482.927365 222.416928 
L 483.209253 222.546116 
L 483.486117 222.685746 
L 483.757573 222.835622 
L 484.023239 222.995534 
L 484.282745 223.16526 
L 484.53573 223.344562 
L 484.781839 223.533191 
L 485.02073 223.730882 
L 485.252068 223.93736 
L 485.475531 224.152337 
L 485.690806 224.375511 
L 485.897594 224.606573 
L 486.095604 224.845199 
L 486.284562 225.091056 
L 486.464202 225.3438 
L 486.634275 225.60308 
L 486.794543 225.868532 
L 486.944781 226.139786 
L 487.997102 228.166711 
L 489.01581 230.210736 
L 490.000629 232.271303 
L 490.951289 234.34785 
L 491.867533 236.439811 
L 492.749109 238.546616 
L 493.595778 240.66769 
L 494.407308 242.802456 
L 495.183479 244.95033 
L 495.924079 247.110727 
L 496.628905 249.283058 
L 497.297766 251.466731 
L 497.930479 253.661151 
L 498.526872 255.865719 
L 499.086783 258.079834 
L 499.610057 260.302892 
L 500.096554 262.534287 
L 500.546139 264.773411 
L 500.958691 267.019653 
L 501.334098 269.272402 
L 501.672255 271.531041 
L 501.973073 273.794957 
L 502.236468 276.06353 
L 502.462368 278.336144 
L 502.650713 280.612178 
L 502.801451 282.891011 
L 502.91454 285.172023 
L 502.989949 287.454591 
L 503.027659 289.738093 
L 503.027659 292.021907 
L 502.989949 294.305409 
L 502.91454 296.587977 
L 502.801451 298.868989 
L 502.650713 301.147822 
L 502.462368 303.423856 
L 502.236468 305.69647 
L 501.973073 307.965043 
L 501.672255 310.228959 
L 501.334098 312.487598 
L 500.958691 314.740347 
L 500.546139 316.986589 
L 500.096554 319.225713 
L 499.610057 321.457108 
L 499.086783 323.680166 
L 498.526872 325.894281 
L 497.930479 328.098849 
L 497.297766 330.293269 
L 496.628905 332.476942 
L 495.924079 334.649273 
L 495.183479 336.80967 
L 494.407308 338.957544 
L 493.595778 341.09231 
L 492.749109 343.213384 
L 491.867533 345.320189 
L 490.951289 347.41215 
L 490.000629 349.488697 
L 489.01581 351.549264 
L 487.997102 353.593289 
L 486.944781 355.620214 
L 486.794543 355.891468 
L 486.634275 356.15692 
L 486.464202 356.4162 
L 486.284562 356.668944 
L 486.095604 356.914801 
L 485.897594 357.153427 
L 485.690806 357.384489 
L 485.475531 357.607663 
L 485.252068 357.82264 
L 485.02073 358.029118 
L 484.781839 358.226809 
L 484.53573 358.415438 
L 484.282745 358.59474 
L 484.023239 358.764466 
L 483.757573 358.924378 
L 483.486117 359.074254 
L 483.209253 359.213884 
L 482.927365 359.343072 
L 482.640847 359.461639 
L 482.3501 359.56942 
L 482.055529 359.666263 
L 481.757546 359.752033 
L 481.456566 359.826611 
L 481.153011 359.889893 
L 480.847303 359.941789 
L 480.53987 359.982229 
L 480.23114 360.011155 
L 479.921546 360.028526 
L 479.611519 360.034319 
" clip-path="url(#pc3c25b8a0b)" style="fill: none; stroke: #000000; stroke-width: 1.5; stroke-linecap: square"/>
   </g>
   <g id="patch_4">
    <path d="M 72 375.401946 
L 72 206.358054 
" style="fill: none; stroke: #000000; stroke-width: 0.8; stroke-linejoin: miter; stroke-linecap: square"/>
   </g>
   <g id="patch_5">
    <path d="M 518.4 375.401946 
L 518.4 206.358054 
" style="fill: none; stroke: #000000; stroke-width: 0.8; stroke-linejoin: miter; stroke-linecap: square"/>
   </g>
   <g id="patch_6">
    <path d="M 72 375.401946 
L 518.4 375.401946 
" style="fill: none; stroke: #000000; stroke-width: 0.8; stroke-linejoin: miter; stroke-linecap: square"/>
   </g>
   <g id="patch_7">
    <path d="M 72 206.358054 
L 518.4 206.358054 
" style="fill: none; stroke: #000000; stroke-width: 0.8; stroke-linejoin: miter; stroke-linecap: square"/>
   </g>
   <g id="text_13">
    <!-- Horizontal ToriSpherical Vessels -->
    <g transform="translate(200.345625 200.358054) scale(0.12 -0.12)">
     <defs>
      <path id="DejaVuSans-48" d="M 628 4666 
L 1259 4666 
L 1259 2753 
L 3553 2753 
L 3553 4666 
L 4184 4666 
L 4184 0 
L 3553 0 
L 3553 2222 
L 1259 2222 
L 1259 0 
L 628 0 
L 628 4666 
z
" transform="scale(0.015625)"/>
      <path id="DejaVuSans-6f" d="M 1959 3097 
Q 1497 3097 1228 2736 
Q 959 2375 959 1747 
Q 959 1119 1226 758 
Q 1494 397 1959 397 
Q 2419 397 2687 759 
Q 2956 1122 2956 1747 
Q 2956 2369 2687 2733 
Q 2419 3097 1959 3097 
z
M 1959 3584 
Q 2709 3584 3137 3096 
Q 3566 2609 3566 1747 
Q 3566 888 3137 398 
Q 2709 -91 1959 -91 
Q 1206 -91 779 398 
Q 353 888 353 1747 
Q 353 2609 779 3096 
Q 1206 3584 1959 3584 
z
" transform="scale(0.015625)"/>
      <path id="DejaVuSans-72" d="M 2631 2963 
Q 2534 3019 2420 3045 
Q 2306 3072 2169 3072 
Q 1681 3072 1420 2755 
Q 1159 2438 1159 1844 
L 1159 0 
L 581 0 
L 581 3500 
L 1159 3500 
L 1159 2956 
Q 1341 3275 1631 3429 
Q 1922 3584 2338 3584 
Q 2397 3584 2469 3576 
Q 2541 3569 2628 3553 
L 2631 2963 
z
" transform="scale(0.015625)"/>
      <path id="DejaVuSans-69" d="M 603 3500 
L 1178 3500 
L 1178 0 
L 603 0 
L 603 3500 
z
M 603 4863 
L 1178 4863 
L 1178 4134 
L 603 4134 
L 603 4863 
z
" transform="scale(0.015625)"/>
      <path id="DejaVuSans-7a" d="M 353 3500 
L 3084 3500 
L 3084 2975 
L 922 459 
L 3084 459 
L 3084 0 
L 275 0 
L 275 525 
L 2438 3041 
L 353 3041 
L 353 3500 
z
" transform="scale(0.015625)"/>
      <path id="DejaVuSans-6e" d="M 3513 2113 
L 3513 0 
L 2938 0 
L 2938 2094 
Q 2938 2591 2744 2837 
Q 2550 3084 2163 3084 
Q 1697 3084 1428 2787 
Q 1159 2491 1159 1978 
L 1159 0 
L 581 0 
L 581 3500 
L 1159 3500 
L 1159 2956 
Q 1366 3272 1645 3428 
Q 1925 3584 2291 3584 
Q 2894 3584 3203 3211 
Q 3513 2838 3513 2113 
z
" transform="scale(0.015625)"/>
      <path id="DejaVuSans-74" d="M 1172 4494 
L 1172 3500 
L 2356 3500 
L 2356 3053 
L 1172 3053 
L 1172 1153 
Q 1172 725 1289 603 
Q 1406 481 1766 481 
L 2356 481 
L 2356 0 
L 1766 0 
Q 1100 0 847 248 
Q 594 497 594 1153 
L 594 3053 
L 172 3053 
L 172 3500 
L 594 3500 
L 594 4494 
L 1172 4494 
z
" transform="scale(0.015625)"/>
      <path id="DejaVuSans-61" d="M 2194 1759 
Q 1497 1759 1228 1600 
Q 959 1441 959 1056 
Q 959 750 1161 570 
Q 1363 391 1709 391 
Q 2188 391 2477 730 
Q 2766 1069 2766 1631 
L 2766 1759 
L 2194 1759 
z
M 3341 1997 
L 3341 0 
L 2766 0 
L 2766 531 
Q 2569 213 2275 61 
Q 1981 -91 1556 -91 
Q 1019 -91 701 211 
Q 384 513 384 1019 
Q 384 1609 779 1909 
Q 1175 2209 1959 2209 
L 2766 2209 
L 2766 2266 
Q 2766 2663 2505 2880 
Q 2244 3097 1772 3097 
Q 1472 3097 1187 3025 
Q 903 2953 641 2809 
L 641 3341 
Q 956 3463 1253 3523 
Q 1550 3584 1831 3584 
Q 2591 3584 2966 3190 
Q 3341 2797 3341 1997 
z
" transform="scale(0.015625)"/>
      <path id="DejaVuSans-6c" d="M 603 4863 
L 1178 4863 
L 1178 0 
L 603 0 
L 603 4863 
z
" transform="scale(0.015625)"/>
      <path id="DejaVuSans-20" transform="scale(0.015625)"/>
      <path id="DejaVuSans-54" d="M -19 4666 
L 3928 4666 
L 3928 4134 
L 2272 4134 
L 2272 0 
L 1638 0 
L 1638 4134 
L -19 4134 
L -19 4666 
z
" transform="scale(0.015625)"/>
      <path id="DejaVuSans-53" d="M 3425 4513 
L 3425 3897 
Q 3066 4069 2747 4153 
Q 2428 4238 2131 4238 
Q 1616 4238 1336 4038 
Q 1056 3838 1056 3469 
Q 1056 3159 1242 3001 
Q 1428 2844 1947 2747 
L 2328 2669 
Q 3034 2534 3370 2195 
Q 3706 1856 3706 1288 
Q 3706 609 3251 259 
Q 2797 -91 1919 -91 
Q 1588 -91 1214 -16 
Q 841 59 441 206 
L 441 856 
Q 825 641 1194 531 
Q 1563 422 1919 422 
Q 2459 422 2753 634 
Q 3047 847 3047 1241 
Q 3047 1584 2836 1778 
Q 2625 1972 2144 2069 
L 1759 2144 
Q 1053 2284 737 2584 
Q 422 2884 422 3419 
Q 422 4038 858 4394 
Q 1294 4750 2059 4750 
Q 2388 4750 2728 4690 
Q 3069 4631 3425 4513 
z
" transform="scale(0.015625)"/>
      <path id="DejaVuSans-70" d="M 1159 525 
L 1159 -1331 
L 581 -1331 
L 581 3500 
L 1159 3500 
L 1159 2969 
Q 1341 3281 1617 3432 
Q 1894 3584 2278 3584 
Q 2916 3584 3314 3078 
Q 3713 2572 3713 1747 
Q 3713 922 3314 415 
Q 2916 -91 2278 -91 
Q 1894 -91 1617 61 
Q 1341 213 1159 525 
z
M 3116 1747 
Q 3116 2381 2855 2742 
Q 2594 3103 2138 3103 
Q 1681 3103 1420 2742 
Q 1159 2381 1159 1747 
Q 1159 1113 1420 752 
Q 1681 391 2138 391 
Q 2594 391 2855 752 
Q 3116 1113 3116 1747 
z
" transform="scale(0.015625)"/>
      <path id="DejaVuSans-68" d="M 3513 2113 
L 3513 0 
L 2938 0 
L 2938 2094 
Q 2938 2591 2744 2837 
Q 2550 3084 2163 3084 
Q 1697 3084 1428 2787 
Q 1159 2491 1159 1978 
L 1159 0 
L 581 0 
L 581 4863 
L 1159 4863 
L 1159 2956 
Q 1366 3272 1645 3428 
Q 1925 3584 2291 3584 
Q 2894 3584 3203 3211 
Q 3513 2838 3513 2113 
z
" transform="scale(0.015625)"/>
      <path id="DejaVuSans-65" d="M 3597 1894 
L 3597 1613 
L 953 1613 
Q 991 1019 1311 708 
Q 1631 397 2203 397 
Q 2534 397 2845 478 
Q 3156 559 3463 722 
L 3463 178 
Q 3153 47 2828 -22 
Q 2503 -91 2169 -91 
Q 1331 -91 842 396 
Q 353 884 353 1716 
Q 353 2575 817 3079 
Q 1281 3584 2069 3584 
Q 2775 3584 3186 3129 
Q 3597 2675 3597 1894 
z
M 3022 2063 
Q 3016 2534 2758 2815 
Q 2500 3097 2075 3097 
Q 1594 3097 1305 2825 
Q 1016 2553 972 2059 
L 3022 2063 
z
" transform="scale(0.015625)"/>
      <path id="DejaVuSans-63" d="M 3122 3366 
L 3122 2828 
Q 2878 2963 2633 3030 
Q 2388 3097 2138 3097 
Q 1578 3097 1268 2742 
Q 959 2388 959 1747 
Q 959 1106 1268 751 
Q 1578 397 2138 397 
Q 2388 397 2633 464 
Q 2878 531 3122 666 
L 3122 134 
Q 2881 22 2623 -34 
Q 2366 -91 2075 -91 
Q 1284 -91 818 406 
Q 353 903 353 1747 
Q 353 2603 823 3093 
Q 1294 3584 2113 3584 
Q 2378 3584 2631 3529 
Q 2884 3475 3122 3366 
z
" transform="scale(0.015625)"/>
      <path id="DejaVuSans-56" d="M 1831 0 
L 50 4666 
L 709 4666 
L 2188 738 
L 3669 4666 
L 4325 4666 
L 2547 0 
L 1831 0 
z
" transform="scale(0.015625)"/>
      <path id="DejaVuSans-73" d="M 2834 3397 
L 2834 2853 
Q 2591 2978 2328 3040 
Q 2066 3103 1784 3103 
Q 1356 3103 1142 2972 
Q 928 2841 928 2578 
Q 928 2378 1081 2264 
Q 1234 2150 1697 2047 
L 1894 2003 
Q 2506 1872 2764 1633 
Q 3022 1394 3022 966 
Q 3022 478 2636 193 
Q 2250 -91 1575 -91 
Q 1294 -91 989 -36 
Q 684 19 347 128 
L 347 722 
Q 666 556 975 473 
Q 1284 391 1588 391 
Q 1994 391 2212 530 
Q 2431 669 2431 922 
Q 2431 1156 2273 1281 
Q 2116 1406 1581 1522 
L 1381 1569 
Q 847 1681 609 1914 
Q 372 2147 372 2553 
Q 372 3047 722 3315 
Q 1072 3584 1716 3584 
Q 2034 3584 2315 3537 
Q 2597 3491 2834 3397 
z
" transform="scale(0.015625)"/>
     </defs>
     <use xlink:href="#DejaVuSans-48"/>
     <use xlink:href="#DejaVuSans-6f" transform="translate(75.195312 0)"/>
     <use xlink:href="#DejaVuSans-72" transform="translate(136.376953 0)"/>
     <use xlink:href="#DejaVuSans-69" transform="translate(177.490234 0)"/>
     <use xlink:href="#DejaVuSans-7a" transform="translate(205.273438 0)"/>
     <use xlink:href="#DejaVuSans-6f" transform="translate(257.763672 0)"/>
     <use xlink:href="#DejaVuSans-6e" transform="translate(318.945312 0)"/>
     <use xlink:href="#DejaVuSans-74" transform="translate(382.324219 0)"/>
     <use xlink:href="#DejaVuSans-61" transform="translate(421.533203 0)"/>
     <use xlink:href="#DejaVuSans-6c" transform="translate(482.8125 0)"/>
     <use xlink:href="#DejaVuSans-20" transform="translate(510.595703 0)"/>
     <use xlink:href="#DejaVuSans-54" transform="translate(542.382812 0)"/>
     <use xlink:href="#DejaVuSans-6f" transform="translate(586.466797 0)"/>
     <use xlink:href="#DejaVuSans-72" transform="translate(647.648438 0)"/>
     <use xlink:href="#DejaVuSans-69" transform="translate(688.761719 0)"/>
     <use xlink:href="#DejaVuSans-53" transform="translate(716.544922 0)"/>
     <use xlink:href="#DejaVuSans-70" transform="translate(780.021484 0)"/>
     <use xlink:href="#DejaVuSans-68" transform="translate(843.498047 0)"/>
     <use xlink:href="#DejaVuSans-65" transform="translate(906.876953 0)"/>
     <use xlink:href="#DejaVuSans-72" transform="translate(968.400391 0)"/>
     <use xlink:href="#DejaVuSans-69" transform="translate(1009.513672 0)"/>
     <use xlink:href="#DejaVuSans-63" transform="translate(1037.296875 0)"/>
     <use xlink:href="#DejaVuSans-61" transform="translate(1092.277344 0)"/>
     <use xlink:href="#DejaVuSans-6c" transform="translate(1153.556641 0)"/>
     <use xlink:href="#DejaVuSans-20" transform="translate(1181.339844 0)"/>
     <use xlink:href="#DejaVuSans-56" transform="translate(1213.126953 0)"/>
     <use xlink:href="#DejaVuSans-65" transform="translate(1273.785156 0)"/>
     <use xlink:href="#DejaVuSans-73" transform="translate(1335.308594 0)"/>
     <use xlink:href="#DejaVuSans-73" transform="translate(1387.408203 0)"/>
     <use xlink:href="#DejaVuSans-65" transform="translate(1439.507812 0)"/>
     <use xlink:href="#DejaVuSans-6c" transform="translate(1501.03125 0)"/>
     <use xlink:href="#DejaVuSans-73" transform="translate(1528.814453 0)"/>
    </g>
   </g>
  </g>
 </g>
 <defs>
  <clipPath id="pc3c25b8a0b">
   <rect x="72" y="206.358054" width="446.4" height="169.043892"/>
  </clipPath>
 </defs>
</svg>
